<svg xmlns="http://www.w3.org/2000/svg" version="1.1" xmlns:xlink="http://www.w3.org/1999/xlink" width="1500" height="1500" viewBox="0 0 1500 1500"><rect width="1500" height="1500" x="0" y="0" id="background" stroke="transparent" fill="#ffffff"></rect><svg xml:space="preserve" width="1000" height="1000" data-version="2" data-id="lg_eFkl341pSWNeQvLvPC" viewBox="0 0 274 263" x="250" y="250"><rect width="100%" height="100%" fill="transparent"></rect><path fill="#0074d9" fill-rule="evenodd" d="M225.086 151.133c-7.213 2.204-14.404.795-20.1-3.099l-32.417 31.083c2.622 4.156 3.63 7.454 3.509 12.223l44.108 7.933c2.423-6.824 7.742-12.279 15.161-14.545 12.366-3.777 25.55 3.237 29.327 15.603s-3.237 25.55-15.603 29.327c-15.045 4.595-29.837-6.21-30.265-21.626l-44.11-7.933c-2.547 6.411-7.866 11.866-15.08 14.07-12.366 3.777-25.55-3.238-29.326-15.604-3.84-12.572 3.174-25.755 15.54-29.532 7.42-2.267 14.942-.508 20.7 3.591l32.211-31.02c-8.734-13.104-2.63-30.742 12.622-35.4 12.366-3.777 25.55 3.237 29.326 15.603 3.84 12.572-3.237 25.55-15.603 29.326"></path><path fill="none" stroke="#fff" stroke-width="1.97" d="M23.177 3.666h54.72v27.36h-43.78l-.68 1.37 36.48 66.58q11.17 20.06 11.17 30.55 0 23.03-15.28 33.74H5.387v-26.44h47.2l.68-1.37-41.04-73.65q-8.89-15.96-8.89-25.99 0-23.71 19.84-32.15Zm99.63 27.36h-34.43V3.666h99.87v27.36h-34.43v132.24h-31.01Z"></path><path fill="#0074d9" d="M23.177 3.666h54.72v27.36h-43.78l-.68 1.37 36.48 66.58q11.17 20.06 11.17 30.55 0 23.03-15.28 33.74H5.387v-26.44h47.2l.68-1.37-41.04-73.65q-8.89-15.96-8.89-25.99 0-23.71 19.84-32.15"></path><rect width="77.75" height="159.6" x="-38.88" y="-79.8" fill="none" rx="0" ry="0" transform="translate(42.71 83.97)"></rect><path fill="#0074d9" d="M122.807 31.026h-34.43V3.666h99.87v27.36h-34.43v132.24h-31.01Z"></path><rect width="99.87" height="159.6" x="-49.94" y="-79.8" fill="none" rx="0" ry="0" transform="translate(138.81 83.97)"></rect></svg></svg>